# xmcd
#
# Track frame offsets:
#	150
#	12478
#	29168
#	51950
#	76650
#	93363
#	111290
#	124870
#	135490
#	160818
#	168518
#	191950
#
# Disc length: 3052 seconds
#
# Revision: 1
# Processed by: cddbd v1.5PL3 Copyright (c) Steve Scherf et al.
# Submitted via: CDex 1.50Beta5
#
DISCID=a10bea0c
DTITLE=pre-school - this album
DYEAR=1900
DGENRE=Rock
TTITLE0=temple at the back
TTITLE1=NO TUESDAY
TTITLE2=Depends
TTITLE3=TIME LIES
TTITLE4=whipped cream
TTITLE5=Pharmacy woman
TTITLE6=laugh and laugh your life away
TTITLE7=Oxygen
TTITLE8=Play High
TTITLE9=so sing a song la,la
TTITLE10=Embarrassing Is That He's Greedy
TTITLE11=this life (リベンジ)
EXTD=
EXTT0=
EXTT1=
EXTT2=
EXTT3=
EXTT4=
EXTT5=
EXTT6=
EXTT7=
EXTT8=
EXTT9=
EXTT10=
EXTT11=
PLAYORDER=
